<?xml version="1.0" ?><!DOCTYPE svg  PUBLIC '-//W3C//DTD SVG 1.1//EN'  'http://www.w3.org/Graphics/SVG/1.1/DTD/svg11.dtd'><svg height="100%" style="fill-rule:evenodd;clip-rule:evenodd;stroke-linejoin:round;stroke-miterlimit:2;" version="1.1" viewBox="0 0 32 32" width="100%" xml:space="preserve" xmlns="http://www.w3.org/2000/svg" xmlns:serif="http://www.serif.com/" xmlns:xlink="http://www.w3.org/1999/xlink"><g transform="matrix(1,0,0,1,-240,-48)"><g transform="matrix(1.09091,0,0,1.14286,-23.2727,-12)"><path d="M266.858,63.993C266.894,63.743 266.815,63.49 266.64,63.3C266.466,63.109 266.215,63 265.95,63C262.238,63 249.762,63 246.05,63C245.785,63 245.534,63.109 245.36,63.3C245.185,63.49 245.106,63.743 245.142,63.993C245.487,66.409 246.372,72.606 246.784,75.486C246.908,76.354 247.683,77 248.6,77C252.016,77 259.984,77 263.4,77C264.317,77 265.092,76.354 265.216,75.486C265.628,72.606 266.513,66.409 266.858,63.993Z" style="fill:rgb(144,224,239);"/></g><path d="M246.382,59L245.146,59C244.568,59 244.019,59.25 243.639,59.685C243.259,60.12 243.086,60.698 243.164,61.27C243.541,64.032 244.506,71.114 244.955,74.405C245.158,75.892 246.427,77 247.928,77L264.072,77C265.573,77 266.842,75.892 267.045,74.405C267.494,71.114 268.459,64.032 268.836,61.27C268.914,60.698 268.741,60.12 268.361,59.685C267.981,59.25 267.432,59 266.854,59L265.618,59L261.894,51.553C261.648,51.059 261.046,50.859 260.553,51.106C260.059,51.352 259.859,51.954 260.106,52.447L263.382,59L248.618,59L251.894,52.447C252.141,51.954 251.941,51.352 251.447,51.106C250.954,50.859 250.352,51.059 250.106,51.553L246.382,59ZM266.854,61L245.146,61L246.937,74.135C247.004,74.631 247.428,75 247.928,75C247.928,75 264.072,75 264.072,75C264.572,75 264.996,74.631 265.063,74.135C265.063,74.135 266.854,61 266.854,61ZM259,65L259,71C259,71.552 259.448,72 260,72C260.552,72 261,71.552 261,71L261,65C261,64.448 260.552,64 260,64C259.448,64 259,64.448 259,65ZM251,65L251,71C251,71.552 251.448,72 252,72C252.552,72 253,71.552 253,71L253,65C253,64.448 252.552,64 252,64C251.448,64 251,64.448 251,65ZM255,65L255,71C255,71.552 255.448,72 256,72C256.552,72 257,71.552 257,71L257,65C257,64.448 256.552,64 256,64C255.448,64 255,64.448 255,65Z" style="fill:rgb(25,144,167);"/></g></svg>